<svg id="Layer_1" enable-background="new 0 0 512 512" height="512" viewBox="0 0 512 512" width="512" xmlns="http://www.w3.org/2000/svg"><g><g><path d="m107.339 369.877-9.29 9.29-15.304 9.29-33.885-9.29v-267.811c0-5.701 4.622-10.323 10.322-10.323h28.544 9.29c5.701 0 10.323 4.622 10.323 10.323z" fill="#ff5876"/><path d="m106.306 101.034h-18.58c5.701 0 10.323 4.622 10.323 10.323v267.811h18.581v-197.798l-9.29-17.592 9.29-17.592v-34.829c-.001-5.702-4.623-10.323-10.324-10.323z" fill="#e6485d"/><path d="m175.108 369.877-9.29 9.29-15.304 9.29-33.884-9.29v-197.797l-9.29-17.592 9.29-17.592v-20.419c0-5.701 4.621-10.323 10.323-10.323h28.543 9.29c5.701 0 10.323 4.622 10.323 10.323v244.11z" fill="#a0e557"/><path d="m174.076 115.444h-18.581c5.701 0 10.323 4.621 10.323 10.323v253.401h18.581v-45.152l-9.29-17.592 9.29-17.592v-173.066c-.001-5.701-4.622-10.322-10.323-10.322z" fill="#87d654"/><path d="m242.877 369.877-9.29 9.29-15.304 9.29-33.885-9.29v-267.811c0-5.701 4.622-10.323 10.323-10.323h28.544 9.29c5.701 0 10.323 4.622 10.323 10.323v258.521z" fill="#ffcf4d"/><path d="m241.845 101.034h-18.581c5.701 0 10.323 4.622 10.323 10.323v267.811h18.581v-45.152l-9.29-17.592 9.29-17.592v-187.476c-.001-5.701-4.622-10.322-10.323-10.322z" fill="#ffb629"/><path d="m310.646 369.877-9.29 9.29-15.304 9.29-33.885-9.29v-45.152l-9.29-17.592 9.29-17.592v-187.475c0-5.701 4.622-10.323 10.323-10.323h28.543 9.29c5.701 0 10.323 4.622 10.323 10.323z" fill="#86dcff"/><path d="m309.614 101.034h-18.581c5.701 0 10.323 4.622 10.323 10.323v267.811h18.581v-197.798l-9.29-17.592 9.29-17.592v-34.829c0-5.702-4.622-10.323-10.323-10.323z" fill="#56caed"/><path d="m446.133 367.177-37.954 11.542c-5.454 1.659-11.221-1.418-12.879-6.873l-10.133-33.323 5.017-20.516-15.254-13.147-54.544-179.365c-1.659-5.454 1.418-11.221 6.873-12.879l36.702-11.161s14.424 1.936 16.083 7.391l71.594 241.841c1.657 5.455-5.505 16.49-5.505 16.49z" fill="#ff5876"/><path d="m366.686 105.921 79.446 261.256 7.132-2.169c5.454-1.659 8.531-7.425 6.873-12.879l-10.133-33.323-12.172-14.734 1.935-18.928-54.544-179.364c-1.659-5.454-7.425-8.532-12.88-6.873l-8.384 2.549c1.234 1.194 2.192 2.706 2.727 4.465z" fill="#e6485d"/><path d="m494.812 404.253h-477.624c-9.493 0-16.349-13.97-14.884-16.5 2.973-5.133 8.525-8.586 14.884-8.586h477.624c6.359 0 11.911 3.453 14.884 8.586 1.465 2.53-5.391 16.5-14.884 16.5z" fill="#ffbe7c"/><path d="m494.812 396.356h-477.624c-6.358 0-11.897-3.462-14.87-8.594-1.465 2.53-2.318 5.459-2.318 8.594 0 9.493 7.695 17.188 17.188 17.188h477.624c9.493 0 17.188-7.695 17.188-17.188 0-3.135-.853-6.064-2.318-8.594-2.973 5.132-8.512 8.594-14.87 8.594z" fill="#ea9d57"/><path d="m98.048 181.37h-49.188v-35.184h49.188l9.291 17.592z" fill="#ffcf4d"/><path d="m98.048 146.186h18.581v35.184h-18.581z" fill="#ffb629"/><path d="m233.587 181.37h-49.189v-35.184h49.189l9.29 17.592z" fill="#ff5876"/><path d="m233.587 334.015h-49.189l-9.29-17.592 9.29-17.592h49.189l9.29 17.592z" fill="#ff5876"/><path d="m233.587 298.831h18.581v35.184h-18.581z" fill="#e6485d"/><path d="m432.996 323.978-47.83 14.544-10.236-33.662 47.829-14.545 15.073 13.756z" fill="#ffcf4d"/><path d="m427.493 286.968h17.777v35.185h-17.777z" fill="#ffb629" transform="matrix(.957 -.291 .291 .957 -69.733 140.141)"/><path d="m165.817 334.015h-49.188v-35.184h49.188l9.291 17.592z" fill="#ffcf4d"/><path d="m165.817 298.831h18.581v35.184h-18.581z" fill="#ffb629"/><path d="m301.356 181.37h-49.189l-9.29-17.592 9.29-17.592h49.189l9.29 17.592z" fill="#ffcf4d"/><path d="m301.356 146.186h18.581v35.184h-18.581z" fill="#ffb629"/><path d="m233.587 146.186h18.581v35.184h-18.581z" fill="#e6485d"/></g></g></svg>